<svg version="1.2" xmlns="http://www.w3.org/2000/svg" viewBox="335 446.0999999999999 408.91250021072506 65.7839781520255" width="292" height="61">
	<style>
		.s0 { fill: #000000 } 
	</style>
	<g>
		<path class="s0" d="m378.2 447.5c-8.1 2.5-14 7.5-18 15-2.3 4.3-2.7 6.3-2.7 13.5 0 7.3 0.4 9.3 2.8 14.2 3.1 6.3 7.8 10.6 15.4 14.1 7.3 3.3 20.8 3.2 28.3-0.4 12.3-5.7 18.3-14.8 18.3-27.3 0-18-13.6-30.7-32.6-30.5-4 0-9.1 0.6-11.5 1.4zm20.1 10.9c4.4 1.8 9.5 7.8 10.3 12.1 2.7 14.6-5.1 25.3-18.5 25.5-16.7 0.1-25.7-18.3-15.8-32.4 4.1-5.8 16.3-8.5 24-5.2z"/>
		<path class="s0" d="m702.2 447.5c-11.4 2.5-18.5 8.3-23.4 19.2-2.9 6.2-3.1 20.7-0.5 26.6 6.4 14.7 24.8 22.4 39.9 16.7 3.2-1.2 6-2.5 6.2-2.9 0.3-0.4-0.5-2-1.7-3.5l-2.2-2.7-4 1.7c-8.1 3.4-21.1 0.2-26.8-6.6-5.6-6.5-6-18.7-1.2-28.6 4.5-9.2 11.9-13.3 24-13.3 10.7-0.1 19.6 4.8 22.4 12.2 3.6 9.5-2 27.7-8.5 27.7-5.3 0-4.9-7.7 1.5-26.3l2-5.7h-4.1c-2.5 0-4.5 0.6-5.2 1.6-1 1.4-1.4 1.4-4.1 0-7.2-3.8-17-0.3-22 7.8-2.3 3.8-3 6.3-3.3 11.5-0.4 7.9 1.7 12.5 6.9 15.3 4.4 2.4 6.6 2.3 12.1-0.5l4.6-2.3 2.6 2.3c3.2 2.7 10.1 3.1 14.5 0.9 4.4-2.3 8.9-8.1 10.6-13.8 1.9-6.6 1.9-16.8-0.1-21.6-3.4-8.2-12.4-14.3-23.5-16.2-7.8-1.2-8.8-1.2-16.7 0.5zm12.2 22.7c2.1 3 2 9.4-0.3 14.3-2.2 4.9-4.8 7.3-8.8 8.1-6.1 1.2-9.3-7.8-5.9-16.1 3.3-7.8 11.6-11.3 15-6.3z"/>
		<path class="s0" d="m632.8 448.4c-10.2 3.6-15.1 11.7-12.8 20.7 1.9 7.1 7.3 10.3 23 13.5 9.4 1.9 12.2 3.6 11.8 7.1-0.5 4-4.6 6.4-11 6.6-6.5 0.1-10.4-2-12-6.4-1-2.8-1.2-2.9-7.4-2.9-6 0-6.4 0.1-6.4 2.3 0 1.2 1 4.3 2.3 6.7 1.7 3.6 3.4 5.1 7.9 7.4 5 2.5 6.8 2.9 15 2.9 17.2 0 26.2-5.9 26.2-17.4 0-8.9-5.7-13.3-21.4-16.4-9.9-2-13.8-3.8-14.9-6.8-1.9-5.1 2.6-8.7 11.1-8.7 6.1 0 9.2 2.1 11 7.1 1 2.8 1.2 2.9 7.4 2.9h6.5l-0.7-3.8c-1.4-7.5-5.8-12.5-13.3-15.1-4.6-1.5-17.7-1.3-22.3 0.3z"/>
		<path class="s0" d="m335 476.5v28.5h7 7v-28.5-28.5h-7-7z"/>
		<path class="s0" d="m448.4 453.2c-1.4 2.9-8 15.8-14.6 28.5l-12 23.3h6.9 7l2.3-5 2.3-5h17.9 17.8l2.5 5 2.5 5h7.1 7l-14.5-28.3-14.5-28.2-7.5-0.3-7.5-0.3zm10.4 30.6c-6.1 0.1-11.3 0.1-11.5-0.2-0.2-0.2 2.1-5.5 5.3-11.7l5.7-11.4 5.7 11.5 5.8 11.5z"/>
		<path class="s0" d="m500 476.5v28.5h7 7v-10-10h8.5c8.9 0 13.7 1.5 14.9 4.5 0.3 0.9 0.9 4.8 1.2 8.6l0.7 6.9h6.6 6.7l-0.4-7.3c-0.5-8.5-2.1-12.1-6.3-14.3l-3.1-1.6 3.6-2.4c7.2-4.9 8.2-19.5 1.8-25.7-5-4.8-9.7-5.7-29.8-5.7h-18.4zm35-17.5c3.3 1.7 4 2.9 4 7 0 6.4-2.8 8-15.6 8.7l-9.4 0.6v-9.3-9.3l9.3 0.5c5.1 0.3 10.4 1.1 11.7 1.8z"/>
		<path class="s0" d="m555 454v6h10.5 10.5v22.5 22.5h7 7v-22.5-22.5h11 11v-6-6h-28.5-28.5z"/>
	</g>
</svg>